<?xml version="1.0" encoding="UTF-8" standalone="no"?>
<!-- Created with Inkscape (http://www.inkscape.org/) -->

<svg
   width="158.92795mm"
   height="32.165562mm"
   viewBox="0 0 158.92795 32.165562"
   version="1.1"
   id="svg1"
   xml:space="preserve"
   inkscape:export-filename="aathi_dark.png"
   inkscape:export-xdpi="96"
   inkscape:export-ydpi="96"
   xmlns:inkscape="http://www.inkscape.org/namespaces/inkscape"
   xmlns:sodipodi="http://sodipodi.sourceforge.net/DTD/sodipodi-0.dtd"
   xmlns="http://www.w3.org/2000/svg"
   xmlns:svg="http://www.w3.org/2000/svg"><sodipodi:namedview
     id="namedview1"
     pagecolor="#ffffff"
     bordercolor="#000000"
     borderopacity="0.25"
     inkscape:showpageshadow="2"
     inkscape:pageopacity="0.0"
     inkscape:pagecheckerboard="0"
     inkscape:deskcolor="#d1d1d1"
     inkscape:document-units="mm" /><defs
     id="defs1" /><g
     inkscape:label="Layer 1"
     inkscape:groupmode="layer"
     id="layer1"
     transform="matrix(0.71512144,0,0,0.71512144,-12.575138,-104.8366)"><path
       style="fill:#ffffff;fill-opacity:1"
       d="m 35.716775,191.34042 c -0.08106,-0.13115 0.93572,-2.83982 2.2595,-6.01927 1.32378,-3.17945 3.930225,-9.47176 5.7921,-13.9829 5.659149,-13.71158 9.806169,-23.51568 10.212302,-24.14323 0.366791,-0.56675 0.549229,-0.59531 3.803141,-0.59531 1.879828,0 3.485216,0.10897 3.567529,0.24215 0.141675,0.22924 -2.841966,7.77641 -7.121552,18.0141 -1.064543,2.54661 -3.810105,9.15458 -6.101249,14.68437 -2.291144,5.52979 -4.390023,10.50065 -4.664175,11.04635 l -0.498458,0.99219 h -3.550882 c -1.952986,0 -3.617201,-0.1073 -3.698256,-0.23845 z m 14.035287,-5.78082 c 0.375817,-0.83674 1.228048,-2.85154 1.893846,-4.47733 l 1.210543,-2.95597 3.063754,-0.82927 c 3.627828,-0.98194 5.577295,-1.59302 5.577295,-1.74826 0,-0.0619 -0.764315,-1.74899 -1.698478,-3.74905 -0.934163,-2.00006 -1.775889,-3.94549 -1.870503,-4.32318 -0.123994,-0.49498 0.284111,-1.89857 1.461663,-5.02709 0.898527,-2.3872 1.730262,-4.44349 1.8483,-4.56952 0.242537,-0.25897 1.098088,1.52699 4.545934,9.48957 1.32323,3.05594 2.49771,5.65972 2.60995,5.78619 0.17807,0.20065 8.58776,-2.7956 10.25712,-3.65447 0.56999,-0.29325 0.26442,-0.47589 -3.96875,-2.37214 -2.52245,-1.12994 -4.8782,-2.19294 -5.23498,-2.36222 -0.49361,-0.23419 -1.11038,-1.34966 -2.57969,-4.66554 -1.06204,-2.39677 -1.93098,-4.37813 -1.93098,-4.40304 0,-0.0249 4.6732,2.00599 10.38489,4.51309 l 10.3849,4.55836 v 4.44958 4.44958 l -2.64584,1.1142 c -1.4552,0.61281 -4.61036,1.91569 -7.01145,2.89529 -2.4011,0.9796 -4.46134,1.87118 -4.57833,1.9813 -0.11698,0.11012 0.43963,1.67219 1.23692,3.47127 0.79728,1.79908 1.39198,3.36429 1.32156,3.47824 -0.0704,0.11395 -1.70991,0.20718 -3.6433,0.20718 -4.05089,0 -3.76831,0.1552 -5.17874,-2.84427 -0.49611,-1.05502 -1.02986,-1.91823 -1.18612,-1.91823 -0.15625,0 -3.479151,1.1311 -7.384211,2.51354 -3.905059,1.38245 -7.205521,2.51355 -7.334358,2.51355 -0.128837,0 0.07324,-0.68461 0.449055,-1.52136 z m -17.094143,-5.50748 c -3.958091,-1.70875 -8.396582,-3.65686 -11.810741,-5.18386 -2.674869,-1.19635 -2.962137,-1.39284 -3.108854,-2.12643 -0.209464,-1.04732 -0.203118,-6.51347 0.0085,-7.30345 0.100374,-0.37474 0.632189,-0.84594 1.385449,-1.22755 1.769014,-0.8962 17.899758,-7.78038 18.703186,-7.98203 l 0.678024,-0.17017 -0.384481,0.89293 c -0.211465,0.49112 -0.999929,2.32169 -1.752141,4.06794 -0.752213,1.74625 -1.50974,3.31053 -1.683394,3.47618 -0.173655,0.16565 -2.458861,1.21823 -5.078236,2.33907 -2.619374,1.12083 -4.854576,2.12513 -4.967114,2.23176 -0.112538,0.10664 2.09688,1.18646 4.909817,2.39961 l 5.114431,2.20572 0.514141,3.79423 c 0.282778,2.08683 0.454611,3.79225 0.38185,3.78982 -0.07276,-0.002 -1.382448,-0.54412 -2.910416,-1.20377 z"
       id="path1"
       sodipodi:nodetypes="ssssssssscsssscsssssssssssssscccssssssssssssssssscsssssscscss" /><text
       xml:space="preserve"
       style="font-weight:600;font-size:25.4px;font-family:Poppins;-inkscape-font-specification:'Poppins, Semi-Bold';letter-spacing:0.0423333px;fill:#ffffff;fill-opacity:1;fill-rule:evenodd;stroke-width:4.99999"
       x="98.024017"
       y="176.55688"
       id="text1"><tspan
         sodipodi:role="line"
         id="tspan1"
         x="98.024017"
         y="176.55688"
         style="font-style:normal;font-variant:normal;font-weight:bold;font-stretch:normal;font-size:25.4px;font-family:Ubuntu;-inkscape-font-specification:'Ubuntu, Bold';font-variant-ligatures:normal;font-variant-caps:normal;font-variant-numeric:normal;font-variant-east-asian:normal;fill:#ffffff;fill-opacity:1;stroke-width:5">aathilingam</tspan></text></g></svg>
